<svg xmlns="http://www.w3.org/2000/svg" width="1070" height="256" viewBox="0 0 1070 256" role="img" aria-label="quantsys Positions">
<rect width="1070" height="256" rx="8" fill="#000000"/>
<rect width="1070" height="30" rx="8" fill="#0a0a0a"/><rect y="22" width="1070" height="8" fill="#0a0a0a"/>
<circle cx="20" cy="15" r="5.5" fill="#ff5f57"/>
<circle cx="38" cy="15" r="5.5" fill="#febc2e"/>
<circle cx="56" cy="15" r="5.5" fill="#28c840"/>
<text x="535" y="19.5" fill="#7b7b7b" font-family="ui-monospace,SFMono-Regular,Menlo,Consolas,monospace" font-size="12" text-anchor="middle">QSP  quantsys Positions</text>
<g font-family="ui-monospace,SFMono-Regular,Menlo,Consolas,'Liberation Mono',monospace" font-size="14" xml:space="preserve">
<text x="14.0" y="57.5" fill="#ffffff" font-weight="700" textLength="33.6" lengthAdjust="spacingAndGlyphs">Open</text>
<text x="56.0" y="57.5" fill="#7b7b7b" textLength="50.4" lengthAdjust="spacingAndGlyphs">Closed</text>
<rect x="14.0" y="62" width="8.4" height="18" fill="#0a0a0a"/>
<rect x="22.4" y="62" width="126.0" height="18" fill="#0a0a0a"/>
<text x="22.4" y="75.5" fill="#7b7b7b" font-weight="700" textLength="50.4" lengthAdjust="spacingAndGlyphs">SYMBOL</text>
<rect x="148.4" y="62" width="8.4" height="18" fill="#0a0a0a"/>
<rect x="156.8" y="62" width="84.0" height="18" fill="#0a0a0a"/>
<text x="156.8" y="75.5" fill="#7b7b7b" font-weight="700" textLength="50.4" lengthAdjust="spacingAndGlyphs">SLEEVE</text>
<rect x="240.8" y="62" width="8.4" height="18" fill="#0a0a0a"/>
<rect x="249.2" y="62" width="67.2" height="18" fill="#0a0a0a"/>
<text x="282.8" y="75.5" fill="#7b7b7b" font-weight="700" textLength="25.2" lengthAdjust="spacingAndGlyphs">QTY</text>
<rect x="316.4" y="62" width="8.4" height="18" fill="#0a0a0a"/>
<rect x="324.8" y="62" width="92.4" height="18" fill="#0a0a0a"/>
<text x="383.6" y="75.5" fill="#7b7b7b" font-weight="700" textLength="25.2" lengthAdjust="spacingAndGlyphs">AVG</text>
<rect x="417.2" y="62" width="8.4" height="18" fill="#0a0a0a"/>
<rect x="425.6" y="62" width="92.4" height="18" fill="#0a0a0a"/>
<text x="476.0" y="75.5" fill="#7b7b7b" font-weight="700" textLength="33.6" lengthAdjust="spacingAndGlyphs">LAST</text>
<rect x="518.0" y="62" width="8.4" height="18" fill="#0a0a0a"/>
<rect x="526.4" y="62" width="84.0" height="18" fill="#0a0a0a"/>
<text x="534.8" y="75.5" fill="#cccccc" font-weight="700" textLength="50.4" lengthAdjust="spacingAndGlyphs">UNREAL</text>
<text x="593.6" y="75.5" fill="#cccccc" font-weight="700" textLength="8.4" lengthAdjust="spacingAndGlyphs">▼</text>
<rect x="610.4" y="62" width="8.4" height="18" fill="#0a0a0a"/>
<rect x="618.8" y="62" width="84.0" height="18" fill="#0a0a0a"/>
<text x="660.8" y="75.5" fill="#7b7b7b" font-weight="700" textLength="33.6" lengthAdjust="spacingAndGlyphs">REAL</text>
<rect x="702.8" y="62" width="8.4" height="18" fill="#0a0a0a"/>
<rect x="711.2" y="62" width="67.2" height="18" fill="#0a0a0a"/>
<text x="744.8" y="75.5" fill="#7b7b7b" font-weight="700" textLength="33.6" lengthAdjust="spacingAndGlyphs">FEES</text>
<rect x="778.4" y="62" width="16.8" height="18" fill="#0a0a0a"/>
<rect x="795.2" y="62" width="109.2" height="18" fill="#0a0a0a"/>
<text x="795.2" y="75.5" fill="#7b7b7b" font-weight="700" textLength="50.4" lengthAdjust="spacingAndGlyphs">OPENED</text>
<rect x="904.4" y="62" width="151.2" height="18" fill="#0a0a0a"/>
<rect x="14.0" y="80" width="1041.6" height="18" fill="#3d3d3d"/>
<text x="22.4" y="93.5" fill="#ffffff" textLength="75.6" lengthAdjust="spacingAndGlyphs">NIFTY-FUT</text>
<text x="156.8" y="93.5" fill="#ffffff" textLength="42.0" lengthAdjust="spacingAndGlyphs">trend</text>
<text x="299.6" y="93.5" fill="#ffffff" textLength="16.8" lengthAdjust="spacingAndGlyphs">65</text>
<text x="341.6" y="93.5" fill="#ffffff" textLength="75.6" lengthAdjust="spacingAndGlyphs">25,010.50</text>
<text x="442.4" y="93.5" fill="#ffffff" textLength="75.6" lengthAdjust="spacingAndGlyphs">25,120.00</text>
<text x="560.0" y="93.5" fill="#ffffff" textLength="50.4" lengthAdjust="spacingAndGlyphs">+₹7.1k</text>
<text x="686.0" y="93.5" fill="#ffffff" textLength="16.8" lengthAdjust="spacingAndGlyphs">₹0</text>
<text x="744.8" y="93.5" fill="#ffffff" textLength="33.6" lengthAdjust="spacingAndGlyphs">₹312</text>
<text x="795.2" y="93.5" fill="#ffffff" textLength="42.0" lengthAdjust="spacingAndGlyphs">09:45</text>
<text x="22.4" y="111.5" fill="#cccccc" textLength="109.2" lengthAdjust="spacingAndGlyphs">BANKNIFTY-FUT</text>
<text x="156.8" y="111.5" fill="#cccccc" textLength="25.2" lengthAdjust="spacingAndGlyphs">tom</text>
<text x="299.6" y="111.5" fill="#cccccc" textLength="16.8" lengthAdjust="spacingAndGlyphs">30</text>
<text x="341.6" y="111.5" fill="#cccccc" textLength="75.6" lengthAdjust="spacingAndGlyphs">55,880.00</text>
<text x="442.4" y="111.5" fill="#cccccc" textLength="75.6" lengthAdjust="spacingAndGlyphs">56,040.00</text>
<text x="560.0" y="111.5" fill="#00cc66" textLength="50.4" lengthAdjust="spacingAndGlyphs">+₹4.8k</text>
<text x="686.0" y="111.5" fill="#cccccc" textLength="16.8" lengthAdjust="spacingAndGlyphs">₹0</text>
<text x="744.8" y="111.5" fill="#cccccc" textLength="33.6" lengthAdjust="spacingAndGlyphs">₹298</text>
<text x="795.2" y="111.5" fill="#cccccc" textLength="42.0" lengthAdjust="spacingAndGlyphs">09:30</text>
<text x="22.4" y="129.5" fill="#cccccc" textLength="67.2" lengthAdjust="spacingAndGlyphs">RELIANCE</text>
<text x="156.8" y="129.5" fill="#cccccc" textLength="50.4" lengthAdjust="spacingAndGlyphs">factor</text>
<text x="291.2" y="129.5" fill="#cccccc" textLength="25.2" lengthAdjust="spacingAndGlyphs">120</text>
<text x="350.0" y="129.5" fill="#cccccc" textLength="67.2" lengthAdjust="spacingAndGlyphs">2,941.20</text>
<text x="450.8" y="129.5" fill="#cccccc" textLength="67.2" lengthAdjust="spacingAndGlyphs">2,968.50</text>
<text x="560.0" y="129.5" fill="#00cc66" textLength="50.4" lengthAdjust="spacingAndGlyphs">+₹3.3k</text>
<text x="686.0" y="129.5" fill="#cccccc" textLength="16.8" lengthAdjust="spacingAndGlyphs">₹0</text>
<text x="753.2" y="129.5" fill="#cccccc" textLength="25.2" lengthAdjust="spacingAndGlyphs">₹96</text>
<text x="795.2" y="129.5" fill="#cccccc" textLength="42.0" lengthAdjust="spacingAndGlyphs">10:00</text>
<text x="22.4" y="147.5" fill="#cccccc" textLength="33.6" lengthAdjust="spacingAndGlyphs">INFY</text>
<text x="156.8" y="147.5" fill="#cccccc" textLength="58.8" lengthAdjust="spacingAndGlyphs">meanrev</text>
<text x="282.8" y="147.5" fill="#ff3333" textLength="33.6" lengthAdjust="spacingAndGlyphs">-140</text>
<text x="350.0" y="147.5" fill="#cccccc" textLength="67.2" lengthAdjust="spacingAndGlyphs">1,512.90</text>
<text x="450.8" y="147.5" fill="#cccccc" textLength="67.2" lengthAdjust="spacingAndGlyphs">1,498.30</text>
<text x="560.0" y="147.5" fill="#00cc66" textLength="50.4" lengthAdjust="spacingAndGlyphs">+₹2.0k</text>
<text x="686.0" y="147.5" fill="#cccccc" textLength="16.8" lengthAdjust="spacingAndGlyphs">₹0</text>
<text x="753.2" y="147.5" fill="#cccccc" textLength="25.2" lengthAdjust="spacingAndGlyphs">₹88</text>
<text x="795.2" y="147.5" fill="#cccccc" textLength="42.0" lengthAdjust="spacingAndGlyphs">10:15</text>
<text x="22.4" y="165.5" fill="#cccccc" textLength="33.6" lengthAdjust="spacingAndGlyphs">SBIN</text>
<text x="156.8" y="165.5" fill="#cccccc" textLength="58.8" lengthAdjust="spacingAndGlyphs">meanrev</text>
<text x="282.8" y="165.5" fill="#ff3333" textLength="33.6" lengthAdjust="spacingAndGlyphs">-150</text>
<text x="366.8" y="165.5" fill="#cccccc" textLength="50.4" lengthAdjust="spacingAndGlyphs">812.40</text>
<text x="467.6" y="165.5" fill="#cccccc" textLength="50.4" lengthAdjust="spacingAndGlyphs">805.20</text>
<text x="560.0" y="165.5" fill="#00cc66" textLength="50.4" lengthAdjust="spacingAndGlyphs">+₹1.1k</text>
<text x="686.0" y="165.5" fill="#cccccc" textLength="16.8" lengthAdjust="spacingAndGlyphs">₹0</text>
<text x="753.2" y="165.5" fill="#cccccc" textLength="25.2" lengthAdjust="spacingAndGlyphs">₹95</text>
<text x="795.2" y="165.5" fill="#cccccc" textLength="42.0" lengthAdjust="spacingAndGlyphs">10:15</text>
<text x="22.4" y="183.5" fill="#cccccc" textLength="67.2" lengthAdjust="spacingAndGlyphs">HDFCBANK</text>
<text x="156.8" y="183.5" fill="#cccccc" textLength="50.4" lengthAdjust="spacingAndGlyphs">factor</text>
<text x="299.6" y="183.5" fill="#cccccc" textLength="16.8" lengthAdjust="spacingAndGlyphs">90</text>
<text x="350.0" y="183.5" fill="#cccccc" textLength="67.2" lengthAdjust="spacingAndGlyphs">1,702.40</text>
<text x="450.8" y="183.5" fill="#cccccc" textLength="67.2" lengthAdjust="spacingAndGlyphs">1,694.10</text>
<text x="568.4" y="183.5" fill="#ff3333" textLength="42.0" lengthAdjust="spacingAndGlyphs">-₹747</text>
<text x="686.0" y="183.5" fill="#cccccc" textLength="16.8" lengthAdjust="spacingAndGlyphs">₹0</text>
<text x="753.2" y="183.5" fill="#cccccc" textLength="25.2" lengthAdjust="spacingAndGlyphs">₹71</text>
<text x="795.2" y="183.5" fill="#cccccc" textLength="42.0" lengthAdjust="spacingAndGlyphs">10:00</text>
<text x="14.0" y="237.5" fill="#ffffff" textLength="8.4" lengthAdjust="spacingAndGlyphs">└</text>
<rect x="22.4" y="224" width="117.6" height="18" fill="#1f1f1f"/>
<text x="22.4" y="237.5" fill="#6a6a6a" textLength="117.6" lengthAdjust="spacingAndGlyphs">127.0.0.1:8000</text>
<rect x="140.0" y="224" width="8.4" height="18" fill="#1f1f1f"/>
<rect x="148.4" y="224" width="67.2" height="18" fill="#1f1f1f"/>
<text x="148.4" y="237.5" fill="#6a6a6a" textLength="33.6" lengthAdjust="spacingAndGlyphs">just</text>
<text x="190.4" y="237.5" fill="#6a6a6a" textLength="25.2" lengthAdjust="spacingAndGlyphs">now</text>
<rect x="215.6" y="224" width="831.6" height="18" fill="#1f1f1f"/>
<text x="1047.2" y="237.5" fill="#ffffff" textLength="8.4" lengthAdjust="spacingAndGlyphs">┘</text>
</g></svg>